<?xml version="1.0" standalone="no"?><!DOCTYPE svg PUBLIC "-//W3C//DTD SVG 1.1//EN" "http://www.w3.org/Graphics/SVG/1.1/DTD/svg11.dtd"><svg class="icon" width="200px" height="200.00px" viewBox="0 0 1024 1024" version="1.1" xmlns="http://www.w3.org/2000/svg"><path d="M974.96177778 984.86044445H47.78666667V299.46311111h927.17511111v685.39733334z m-854.35733333-72.81777778h781.53955555V372.28088889H120.60444445v539.76177778zM747.29244445 248.71822222h-72.81777778c0-89.99822222-73.15911111-163.15733333-163.15733334-163.15733333-89.99822222 0-163.15733333 73.15911111-163.15733333 163.15733333h-72.81777778c0-130.16177778 105.81333333-235.97511111 235.97511111-235.97511111s235.97511111 105.92711111 235.97511112 235.97511111zM275.34222222 230.05866667h72.81777778v130.73066666h-72.81777778zM674.47466667 230.05866667h72.81777778v130.73066666h-72.81777778zM601.77066667 601.88444445c0-46.19377778-37.43288889-83.62666667-83.62666667-83.62666667s-83.62666667 37.43288889-83.62666667 83.62666667c0 33.10933333 19.22844445 61.78133333 47.21777778 75.32088888v106.60977778h72.81777778v-106.60977778c27.87555555-13.53955555 47.21777778-42.21155555 47.21777778-75.32088888z" /></svg>